<svg width="130" height="35" viewBox="0 0 130 35" fill="none" xmlns="http://www.w3.org/2000/svg">
<path fill-rule="evenodd" clip-rule="evenodd" d="M17.1575 1.25343e-07C21.707 1.25343e-07 26.0702 1.79111 29.287 4.97924C32.5039 8.16737 34.3108 12.4913 34.3102 16.9998C34.3102 23.8757 30.1304 30.0746 23.7198 32.7057C17.3092 35.3368 9.93041 33.882 5.02431 29.0197C0.118217 24.1573 -1.34897 16.8451 1.30693 10.4928C3.96284 4.1405 10.2188 -0.000831886 17.1575 1.25343e-07ZM9.73537 6.86944C9.00889 6.70569 8.25234 6.72764 7.53677 6.93322C7.56065 6.9579 7.57674 6.97436 7.58686 6.98465L7.60113 6.99905L7.80874 7.02991C9.04999 7.141 10.2379 7.58243 11.2468 8.30751C11.6534 8.58488 12.0298 8.90343 12.3699 9.258C12.6834 9.60364 13.0239 10.0295 13.1277 10.4389C13.2315 10.8483 13.4641 11.1816 13.5741 11.5643C13.9353 12.8234 14.0848 14.6503 13.2544 15.7654C12.9658 16.1562 12.4696 16.5492 12.8537 17.1664C12.8703 17.1973 12.808 17.2651 12.808 17.3186C12.7764 17.5041 12.7673 17.6927 12.781 17.8803C12.8682 18.4296 12.9741 18.9768 13.0758 19.5262C13.0841 19.5632 13.1049 19.5982 13.1049 19.6352C13.6945 21.2811 14.3796 22.8488 15.8516 23.9556C16.4744 24.4247 16.4972 24.832 16.082 25.4719C15.6523 26.1528 15.1893 26.8215 14.7741 27.5127H15.3388L15.3845 27.4284C15.6917 26.9182 16.0156 26.4285 16.3374 25.9121C16.6592 25.3957 16.9644 24.8732 17.3007 24.3671C17.3943 24.2311 17.5332 24.132 17.6931 24.0873L17.7782 24.0708C17.8766 24.052 17.9777 24.0868 18.0432 24.1619C18.1088 24.2371 18.1288 24.3412 18.0959 24.435C18.0004 24.7086 17.9194 24.9966 17.8467 25.2908C17.6827 25.9492 17.5561 26.6301 17.3962 27.237C17.6121 27.1938 17.7139 27.2062 17.9381 27.1609C18.0253 26.6425 18.2246 25.9142 18.3782 25.3402C18.4509 25.0624 18.592 24.3321 18.81 24.0934C19.028 23.8548 19.709 23.6573 20.2488 23.3981C20.3573 23.3422 20.4734 23.302 20.5934 23.2787C20.705 23.2681 20.8175 23.2729 20.9277 23.2931C21.1752 23.3308 21.4196 23.3872 21.6585 23.4618C22.379 23.7645 22.9834 24.287 23.3837 24.9534C23.8072 25.6426 24.565 26.1775 25.1878 26.7001C25.4903 26.9554 25.8975 27.0525 26.284 26.9614H26.2965C26.666 27.2062 27.374 27.4078 27.7041 27.2864C28.0342 27.165 28.5221 26.9202 28.5221 26.5273C28.5915 26.4954 28.6564 26.4546 28.7151 26.4059C28.863 26.2704 28.8793 26.0445 28.7525 25.8895C28.3269 25.1879 27.3615 24.8732 26.7138 24.4103C25.8031 23.7629 24.9034 23.0963 24.0148 22.4105C23.8532 22.2984 23.7085 22.164 23.5851 22.0114C23.2986 21.6267 23.2944 21.0506 23.1387 20.598C22.963 20.0801 22.7112 19.5906 22.3913 19.1456C22.1449 18.8152 21.9169 18.4718 21.7083 18.1169C21.1228 17.1108 20.5415 16.1048 19.6176 15.3601C19.1131 14.9527 19.1547 14.4445 19.1692 13.8644C19.1892 13.1506 19.0103 12.4452 18.6523 11.8256C17.8654 10.4657 16.4017 9.88549 14.8862 9.76822C14.6222 9.75468 14.3658 9.67543 14.1409 9.5378C13.8276 9.30085 13.5345 9.03868 13.2648 8.75396C12.2987 7.79845 11.072 7.14345 9.73537 6.86944ZM73.4767 0.479371C73.8423 0.467922 74.2048 0.550992 74.5301 0.720799C74.7796 0.868406 74.9846 1.08258 75.1229 1.34012C75.2714 1.6311 75.3639 1.94816 75.3956 2.27434C75.4393 2.66667 75.4573 3.06153 75.4493 3.45629C75.4338 4.06679 75.3164 4.67018 75.1023 5.24077C74.8648 5.88237 74.5732 6.5019 74.2306 7.09242C73.867 7.71812 73.4677 8.32167 73.0347 8.89999C72.5989 9.49411 72.1548 10.0567 71.7169 10.5795L71.6198 10.695L71.9916 10.9637L72.0722 10.8629C72.3599 10.4988 72.6733 10.1563 73.0099 9.83841C73.2135 9.62897 73.4869 9.50464 73.7762 9.48991C74.0912 9.48847 74.401 9.571 74.6747 9.72924C74.9377 9.88984 75.1649 10.1043 75.3419 10.3591C75.5292 10.63 75.669 10.9319 75.755 11.2513C75.8502 11.5926 75.8954 11.9463 75.8893 12.301C75.8851 12.6117 75.8686 12.9119 75.8397 13.1932C75.8116 13.4667 75.7633 13.7375 75.6951 14.0036C75.6265 14.2725 75.536 14.5351 75.4245 14.7887C75.2965 15.0696 75.1459 15.3392 74.9742 15.5949L74.652 16.0799L75.1539 15.7923C75.3811 15.6642 75.598 15.5466 75.8294 15.4228C76.0607 15.2989 76.292 15.1645 76.5316 15.0155C76.7712 14.8664 77.0108 14.6985 77.2463 14.5179C77.4621 14.3531 77.669 14.1765 77.866 13.9889L77.8969 13.9595L77.9362 13.7873C77.9527 13.7223 77.9692 13.6509 77.9878 13.5774C78.1241 13.0211 78.2605 12.4773 78.4237 11.9168C78.5868 11.3563 78.7232 10.8398 78.8368 10.3863C78.8751 10.2513 78.9529 10.1312 79.0598 10.042C79.1831 9.93572 79.3226 9.85062 79.4729 9.79012C79.627 9.72479 79.7877 9.67691 79.9521 9.64737C80.1006 9.61935 80.2514 9.60529 80.4024 9.60538C80.6895 9.60958 80.7928 9.67676 80.8279 9.71665C80.8972 9.79764 80.9314 9.90359 80.9229 10.0106C80.9099 10.2003 80.8773 10.3882 80.8259 10.5711C80.7598 10.8314 80.6895 11.1211 80.5842 11.4423C80.4789 11.7635 80.3797 12.112 80.2723 12.492C80.1649 12.872 80.0595 13.2436 79.9583 13.6257C79.8571 14.0078 79.7745 14.3815 79.7063 14.7363C79.6431 15.0637 79.6065 15.3958 79.5969 15.7293C79.5847 15.9729 79.6155 16.2168 79.6878 16.4494C79.7577 16.6668 79.9629 16.809 80.1876 16.7958C80.4726 16.7881 80.7509 16.7057 80.9952 16.5564C81.2911 16.39 81.5741 16.2013 81.8421 15.9917C82.1209 15.7734 82.3998 15.5445 82.6683 15.3115L82.8501 15.154V15.0995C82.8769 14.8874 82.9058 14.6691 82.9368 14.4424C82.9967 14.0498 83.0649 13.6341 83.1434 13.21C83.2219 12.7859 83.3024 12.4018 83.3871 12.0155C83.4718 11.6292 83.5585 11.2786 83.6412 10.9658C83.7089 10.7049 83.7917 10.4484 83.889 10.1974C83.9275 10.0925 83.9752 9.99132 84.0316 9.89509C84.0664 9.83704 84.112 9.78641 84.1658 9.74604C84.2213 9.70986 84.2842 9.6869 84.3496 9.67886C84.4599 9.66448 84.5711 9.65957 84.6822 9.66416C84.7991 9.66298 84.9159 9.67212 85.0313 9.69145C85.0749 9.69441 85.1153 9.71571 85.1428 9.75024C85.1759 9.80747 85.1931 9.87279 85.1924 9.93918V10.3863L85.18 11.2261V12.3346H85.496L85.5353 12.259C85.6619 12.0057 85.8045 11.7258 85.9628 11.4192C86.1152 11.1231 86.2943 10.842 86.4978 10.5795C86.6888 10.3361 86.9151 10.1237 87.1691 9.94968C87.413 9.78411 87.7022 9.70108 87.9953 9.71245C88.0957 9.71235 88.1952 9.73158 88.2886 9.76913C88.3786 9.80323 88.4613 9.85454 88.5323 9.92029C88.6019 9.9845 88.6568 10.0633 88.6934 10.1512C88.734 10.2509 88.753 10.3583 88.7492 10.4661C88.7419 10.607 88.7253 10.7473 88.6996 10.886V10.9091C88.6666 11.0917 88.6315 11.2723 88.5922 11.4822C88.553 11.6922 88.5137 11.8958 88.4807 12.091C88.4492 12.2608 88.4305 12.4327 88.4249 12.6054C88.4174 12.8075 88.4382 13.0097 88.4869 13.2058C88.5224 13.3564 88.5855 13.4988 88.6728 13.6257C88.7488 13.7283 88.849 13.8098 88.964 13.8629C89.0688 13.9099 89.1821 13.9342 89.2966 13.9343C89.6097 13.935 89.92 13.8729 90.2095 13.7517C90.2488 13.737 90.286 13.7181 90.3231 13.7013L90.4347 13.6509L90.4574 13.6005C90.5256 13.4367 90.5875 13.3045 90.6516 13.1806C90.8499 12.8063 91.0867 12.4545 91.358 12.1309C91.912 11.4684 92.6178 10.9544 93.4132 10.6341C93.5776 10.5681 93.7459 10.5127 93.9172 10.4682C94.4316 10.3448 94.8144 9.90623 94.8735 9.37235C94.9169 8.8643 94.983 8.35625 95.0697 7.8566C95.1978 7.11167 95.3709 6.37549 95.5882 5.65225C95.7876 4.99219 96.0347 4.34802 96.3276 3.72501C96.5744 3.19332 96.8756 2.68949 97.2261 2.22186C97.5135 1.83933 97.8627 1.50922 98.2589 1.24565C98.5764 1.03068 98.9494 0.916 99.3309 0.916042C99.5658 0.911942 99.7956 0.985631 99.9857 1.12598C100.174 1.27756 100.326 1.47161 100.428 1.69281C100.552 1.9582 100.635 2.24146 100.673 2.53257C100.724 2.86801 100.746 3.20726 100.74 3.54657C100.735 3.7565 100.723 3.97904 100.702 4.20787C100.615 5.03935 100.455 5.86132 100.225 6.66415C100.004 7.43316 99.7432 8.18996 99.4445 8.93148C99.145 9.66626 98.829 10.3926 98.4716 11.119C98.1143 11.8454 97.7714 12.6096 97.4389 13.3927C97.3986 13.5003 97.3648 13.6104 97.3377 13.7223C97.3046 13.8524 97.2716 13.9868 97.2406 14.1421C97.2096 14.2975 97.1827 14.4507 97.1621 14.5998C97.1416 14.7529 97.1299 14.9072 97.127 15.0617C97.1245 15.2398 97.1328 15.4179 97.1518 15.5949C97.1688 15.7555 97.2049 15.9134 97.2592 16.0652C97.3062 16.2024 97.3848 16.3262 97.4884 16.4263C97.5969 16.5264 97.7385 16.5811 97.885 16.5795C98.0303 16.5804 98.1748 16.557 98.3126 16.5102C98.4709 16.4583 98.6249 16.3937 98.7732 16.3171C98.926 16.2394 99.0954 16.1429 99.2545 16.0421C99.4135 15.9413 99.5705 15.8363 99.7213 15.7314C99.9753 15.5508 100.151 15.5109 100.308 15.597C100.436 15.6808 100.538 15.8013 100.599 15.9434C100.659 16.0625 100.701 16.1898 100.725 16.3213C100.738 16.4159 100.739 16.512 100.727 16.6068C100.665 17.075 100.184 17.3563 99.7585 17.604L99.5788 17.709C99.397 17.8203 99.2152 17.9273 99.019 18.0302C98.8228 18.1331 98.6307 18.2275 98.4448 18.3052C98.2672 18.3807 98.0851 18.4445 97.8995 18.4963C97.7484 18.5404 97.592 18.563 97.4347 18.5634C97.3155 18.5549 97.1972 18.5353 97.0815 18.5047C96.901 18.4564 96.7284 18.3814 96.5693 18.2821C96.3607 18.1495 96.1728 17.986 96.0116 17.7972C95.8035 17.5484 95.6405 17.2641 95.5303 16.9574L95.456 16.7664L95.3093 16.907C95.0799 17.1303 94.8385 17.3405 94.5864 17.5368C94.3407 17.727 94.0795 17.8956 93.8056 18.0407C93.546 18.1788 93.2742 18.292 92.9939 18.3787C92.7328 18.4592 92.4611 18.4981 92.1883 18.4942C91.8504 18.4977 91.5179 18.4085 91.2258 18.2359C90.9545 18.0673 90.7238 17.8392 90.5503 17.5683C90.3652 17.2759 90.2303 16.9536 90.1517 16.6152C90.0822 16.3206 90.0427 16.0195 90.034 15.7167V15.5298L89.7964 15.6096C89.7627 15.623 89.7282 15.6342 89.6932 15.6432C89.4594 15.7144 89.2163 15.7484 88.9723 15.744C88.6084 15.755 88.2492 15.6572 87.9395 15.4627C87.6786 15.2816 87.4658 15.0378 87.3199 14.7531C87.1589 14.4359 87.0447 14.0963 86.9811 13.7454C86.9088 13.3717 86.851 12.9812 86.8076 12.5865L86.7932 12.4647H86.4296L84.6719 17.2051C84.5851 17.4403 84.5004 17.6376 84.4261 17.7909C84.3659 17.9181 84.2925 18.0385 84.2071 18.1499C84.1519 18.2213 84.0812 18.2787 84.0006 18.3178C83.9211 18.3499 83.836 18.3649 83.7506 18.3619C83.5637 18.3693 83.3791 18.3179 83.2219 18.2149C83.0891 18.1151 82.985 17.981 82.9203 17.8266C82.842 17.6387 82.7925 17.4397 82.7737 17.2366C82.7592 17.1631 82.7592 17.096 82.7592 17.0267L82.7427 16.7454L82.5361 16.8881C82.4741 16.9322 82.4122 16.9784 82.3461 17.0225C82.0086 17.2586 81.6544 17.4691 81.2865 17.6523C80.9147 17.8377 80.5294 17.9935 80.1339 18.1184C79.7816 18.2338 79.4135 18.2919 79.0433 18.2905C78.7864 18.2927 78.5313 18.2457 78.2915 18.152C78.1079 18.0772 77.9454 17.9575 77.8185 17.8035C77.6934 17.6447 77.6064 17.4586 77.5644 17.2597C77.5106 17.0173 77.4863 16.7691 77.4921 16.5207C77.4942 16.4347 77.5045 16.3444 77.5045 16.252L77.521 15.9833L77.2959 16.124C77.0299 16.2929 76.754 16.445 76.4697 16.5795C76.1145 16.7444 75.7487 16.8846 75.3749 16.9994C75.2262 17.0456 75.0672 17.0792 74.8999 17.1149C74.624 17.1612 74.3543 17.2401 74.0964 17.35C73.7082 17.5469 73.3047 17.7112 72.8901 17.8412C72.3607 17.9865 71.8049 18.0016 71.2687 17.8853C71.1303 17.858 70.9919 17.8349 70.8556 17.8119C70.411 17.7534 69.9753 17.6392 69.5584 17.4718L69.3643 17.392C69.1866 17.308 68.9181 17.2093 68.6744 17.0981L68.6021 17.0645L68.5381 17.1107C68.2828 17.2925 68.0157 17.4567 67.7387 17.6019C67.4615 17.7457 67.1718 17.8631 66.8732 17.9525C66.571 18.0397 66.2579 18.0815 65.9438 18.0764C65.6649 18.0701 65.4315 17.8433 65.2249 17.3983C65.0101 16.9196 64.911 16.2037 64.9254 15.2737C64.9343 14.8734 64.9646 14.474 65.0163 14.0771C65.0721 13.6551 65.1382 13.1995 65.2229 12.6852L65.2477 12.5256H64.8594L62.327 17.4361C62.2483 17.6213 62.1203 17.7806 61.9573 17.8958C61.815 17.9769 61.6534 18.0161 61.4905 18.0092C61.3037 18.0155 61.1194 17.9643 60.9617 17.8622C60.8283 17.7622 60.7241 17.6272 60.6601 17.4718C60.5813 17.2841 60.5319 17.085 60.5135 16.8818C60.5145 16.87 60.5145 16.858 60.5135 16.8461L60.4908 16.5837L60.2656 16.7265C60.026 16.865 59.7658 17.0099 59.4931 17.1464C59.2242 17.2814 58.9484 17.402 58.6669 17.5074C58.4044 17.6079 58.1352 17.6893 57.8614 17.751C57.6238 17.8078 57.3804 17.836 57.1364 17.835C56.9506 17.8371 56.7673 17.7916 56.6034 17.7027C56.4532 17.6116 56.3243 17.4884 56.2255 17.3416C56.1064 17.1644 56.0132 16.9707 55.9487 16.7664C55.8631 16.5159 55.7941 16.2599 55.7421 16.0001L55.6843 15.7062L55.5025 15.9413C55.2863 16.2183 55.0516 16.4799 54.8002 16.7244C54.5701 16.9506 54.3213 17.1564 54.0567 17.3395C53.8229 17.503 53.5704 17.6369 53.3048 17.7384C53.0773 17.827 52.8358 17.8725 52.5922 17.8727C52.4134 17.8704 52.2364 17.8356 52.0696 17.7699C51.9085 17.7011 51.7666 17.5929 51.6565 17.455C51.5213 17.2782 51.4229 17.0754 51.3673 16.8587C51.2888 16.5484 51.2554 16.2279 51.2682 15.9077C51.2933 15.2995 51.3624 14.6939 51.4748 14.096C51.5429 13.6824 51.6235 13.2331 51.7102 12.7544L51.7681 12.4353L49.8347 13.7244L49.8492 13.8146C49.8822 14.0165 49.8974 14.2209 49.8946 14.4256C49.8924 14.8646 49.8105 15.2994 49.653 15.7083C49.5056 16.091 49.2962 16.4458 49.0333 16.758C48.7641 17.07 48.4525 17.3415 48.1079 17.5641C47.7507 17.7978 47.3681 17.9887 46.9678 18.1331C46.5533 18.2832 46.126 18.3935 45.6913 18.4627C45.2481 18.5346 44.7995 18.5669 44.3508 18.5592C43.7301 18.5502 43.1132 18.4613 42.5145 18.2947C41.9496 18.141 41.414 17.8919 40.9302 17.5578C40.4772 17.2419 40.099 16.8274 39.8231 16.3444C39.5397 15.8275 39.4011 15.2415 39.4224 14.6502C39.4221 14.3468 39.4811 14.0464 39.5959 13.7664C39.6962 13.5334 39.8361 13.3202 40.009 13.1365C40.1585 12.9762 40.3375 12.8471 40.5357 12.7565C40.7032 12.6723 40.888 12.6298 41.0748 12.6327C41.2353 12.63 41.3914 12.6859 41.5148 12.7901C41.6448 12.9108 41.7113 13.0865 41.6945 13.2646C41.6934 13.3622 41.6816 13.4594 41.6594 13.5543C41.6367 13.6572 41.616 13.758 41.5912 13.8671C41.5664 13.9763 41.5437 14.1002 41.521 14.2408C41.499 14.3853 41.4873 14.5313 41.4859 14.6775C41.4698 14.9868 41.5415 15.2943 41.6924 15.5634C41.8429 15.8179 42.0494 16.0334 42.2956 16.1932C42.5685 16.3678 42.8679 16.4955 43.1817 16.5711C43.5267 16.6565 43.88 16.7023 44.2351 16.7076C44.6684 16.7119 45.1008 16.6661 45.524 16.5711C45.9292 16.4823 46.3191 16.3323 46.6807 16.1261C47.0022 15.9423 47.2834 15.6937 47.5069 15.3955C47.7162 15.108 47.8299 14.7601 47.8312 14.4025C47.8402 14.0727 47.7494 13.748 47.5709 13.4724C47.3691 13.1733 47.1208 12.9095 46.8356 12.6915C46.5008 12.4317 46.1457 12.2 45.7739 11.9987C45.3732 11.7782 44.9663 11.5599 44.547 11.3311C44.1277 11.1022 43.7125 10.8629 43.318 10.6194C42.9316 10.3817 42.5691 10.1061 42.2357 9.79642C41.9275 9.50826 41.6697 9.16892 41.4735 8.79292C41.2772 8.40384 41.1819 7.97027 41.1967 7.53329C41.2066 7.08332 41.3197 6.64191 41.5272 6.24427C41.7594 5.79902 42.0869 5.41235 42.4856 5.1127C42.9562 4.76068 43.4841 4.49561 44.0451 4.32964C44.75 4.12281 45.4827 4.0307 46.2159 4.05672C46.7404 4.06578 47.2605 4.15495 47.7589 4.32124C48.2402 4.48045 48.6929 4.71797 49.0994 5.02453C49.4806 5.31476 49.8008 5.6795 50.0413 6.09731C50.2791 6.51523 50.3985 6.99189 50.3862 7.47451C50.3794 7.78524 50.3236 8.09285 50.221 8.38564C50.1008 8.7226 49.9368 9.04173 49.7335 9.33456C49.548 9.62576 49.3028 9.87281 49.0147 10.0588C48.8069 10.1971 48.5667 10.2768 48.3186 10.2898C48.1593 10.2962 48.004 10.2381 47.8869 10.1281C47.7721 10.0066 47.7149 9.84036 47.73 9.67256C47.7372 9.50498 47.7714 9.33974 47.8312 9.1834C47.9154 8.96165 48.0242 8.75035 48.1555 8.55359C48.2764 8.36919 48.3775 8.17211 48.457 7.96576C48.5189 7.7991 48.5531 7.62316 48.5582 7.44512C48.5665 7.21677 48.5028 6.9917 48.3765 6.80271C48.2356 6.6043 48.0519 6.44128 47.8394 6.32615C47.5738 6.18195 47.2883 6.07933 46.9926 6.02174C46.6299 5.9489 46.2613 5.91025 45.8916 5.90627C45.5024 5.89355 45.1134 5.93882 44.737 6.04063C44.4426 6.11934 44.1633 6.24779 43.9108 6.42062C43.714 6.55448 43.5495 6.73172 43.4295 6.93917C43.3298 7.11057 43.2744 7.30485 43.2684 7.5039C43.2557 7.8062 43.3397 8.10455 43.508 8.35415C43.7124 8.63675 43.9607 8.88352 44.2434 9.08473C44.5795 9.33032 44.9338 9.5493 45.303 9.73974L46.5299 10.3884C46.9554 10.611 47.3685 10.8503 47.7692 11.1043C48.159 11.3503 48.5207 11.6397 48.8474 11.9672C49.0086 12.1271 49.1545 12.3021 49.2832 12.4899L49.372 12.6159L52.6418 9.62637H52.6666L52.7161 9.56969C52.8076 9.45938 52.9157 9.36444 53.0363 9.28837C53.1735 9.2043 53.3305 9.15934 53.4907 9.15821C53.7104 9.15793 53.9282 9.19922 54.1331 9.27997C54.2178 9.32616 54.2673 9.37025 54.2673 9.41643C54.2074 9.74394 54.1413 10.1008 54.0711 10.506C54.0009 10.9112 53.9224 11.3185 53.8542 11.73C53.7861 12.1414 53.7158 12.5319 53.6477 12.9308C53.5795 13.3297 53.5196 13.674 53.4659 13.9805C53.4122 14.287 53.3688 14.5347 53.3379 14.7216C53.3009 14.9485 53.2927 15.0002 53.2909 15.0199L53.2904 15.0323C53.2883 15.1505 53.298 15.2687 53.3193 15.385C53.3402 15.4943 53.3757 15.6002 53.4246 15.6999C53.4747 15.7963 53.5452 15.8802 53.6312 15.9455C53.7232 16.0149 53.8347 16.0524 53.9493 16.0526C54.1154 16.0525 54.2793 16.0137 54.4285 15.9392C54.5933 15.8541 54.7433 15.742 54.8725 15.6075C55.0185 15.4515 55.1422 15.2756 55.2402 15.0848C55.3516 14.8623 55.4335 14.6258 55.4839 14.3815L56.4713 9.63897C56.494 9.5361 56.5952 9.44163 56.7728 9.36185C56.9895 9.26614 57.2246 9.22164 57.4606 9.23169C57.695 9.22322 57.9275 9.27828 58.134 9.39124C58.322 9.50881 58.3406 9.62847 58.3406 9.70615C58.3334 9.93124 58.312 10.1556 58.2765 10.378C58.2373 10.6593 58.1856 10.9805 58.1195 11.3248C58.0534 11.6691 57.9874 12.0239 57.913 12.3913C57.8386 12.7586 57.7705 13.0945 57.7064 13.42C57.6424 13.7454 57.5908 14.0204 57.5495 14.2597C57.5163 14.4315 57.4949 14.6055 57.4854 14.7803V15.2695C57.4872 15.4111 57.5052 15.552 57.5391 15.6894C57.5679 15.8111 57.6294 15.9223 57.7168 16.0106C57.8202 16.1 57.9529 16.1465 58.0886 16.1407C58.2724 16.1369 58.4545 16.1029 58.6277 16.04C58.8473 15.9639 59.0612 15.872 59.268 15.765C59.4931 15.6495 59.7245 15.5193 59.9537 15.3766C60.1334 15.2653 60.3152 15.1414 60.5094 14.9966L60.5589 14.9609L60.5796 14.751C60.6354 14.2135 60.7056 13.6677 60.7861 13.1113C60.8667 12.555 60.9617 12.0218 61.0609 11.5053C61.16 10.9889 61.2571 10.5459 61.3459 10.1869C61.4053 9.94004 61.5321 9.71521 61.7115 9.5382C61.9008 9.36375 62.1529 9.27706 62.4076 9.29887C62.6277 9.27539 62.8434 9.37302 62.9735 9.55499C63.0954 9.78602 63.1512 10.0471 63.1346 10.3087C63.13 10.4302 63.119 10.5515 63.1016 10.6719C63.0809 10.8293 63.0561 10.9994 63.0252 11.1904C62.9942 11.3815 62.9611 11.5767 62.9281 11.7782C62.895 11.9798 62.8641 12.1666 62.8331 12.3388C62.8021 12.5109 62.7773 12.66 62.7566 12.788C62.7396 12.8796 62.7279 12.9722 62.7215 13.0652V13.2058H63.1243L63.1636 13.1344C63.2028 13.0652 63.2627 12.9539 63.3453 12.8027L63.6304 12.2779C63.7378 12.068 63.8514 11.858 63.9753 11.6481C64.0992 11.4381 64.2149 11.2177 64.3223 11.0183C64.4297 10.8188 64.5185 10.6404 64.6156 10.4871C64.7127 10.3339 64.7767 10.2205 64.8222 10.147C64.9648 9.88084 65.1799 9.66215 65.4418 9.51721C65.6872 9.40333 65.9551 9.34872 66.2247 9.35765C66.4763 9.35427 66.7113 9.48486 66.8443 9.70195C67.0211 10.0074 67.1018 10.3605 67.0757 10.7139C67.0685 10.8219 67.0533 10.9293 67.0302 11.0351C67.0013 11.1925 66.9641 11.3899 66.9166 11.6124C66.8691 11.8349 66.8195 12.0784 66.7617 12.3493C66.7039 12.6201 66.6522 12.8951 66.6047 13.1764C66.5572 13.4577 66.5159 13.7412 66.4849 14.0162C66.4533 14.2726 66.4347 14.5304 66.4292 14.7887C66.415 15.1302 66.4612 15.4715 66.5655 15.7965C66.6279 16.0663 66.8608 16.26 67.1335 16.2688C67.2636 16.2656 67.3917 16.2349 67.5094 16.1785C67.6518 16.1138 67.7898 16.0394 67.9225 15.956C67.9969 15.9077 68.0774 15.8531 68.1683 15.7881L68.2179 15.7503V15.6873C68.2344 15.5046 68.2509 15.3178 68.2716 15.1225C68.3294 14.5788 68.4079 13.9196 68.505 13.1848C68.6021 12.45 68.7322 11.6145 68.8933 10.6992C69.0007 10.0966 69.135 9.40804 69.294 8.66276C69.4531 7.91748 69.641 7.1512 69.8497 6.39333C70.0583 5.63545 70.2958 4.88597 70.554 4.16588C70.7866 3.50752 71.0712 2.86933 71.405 2.25755C71.6659 1.76824 72.0004 1.3234 72.3965 0.939136C72.6818 0.645594 73.0707 0.480076 73.4767 0.479371ZM94.6752 11.4444L94.6298 11.4927C94.2138 11.6838 93.8331 11.9458 93.5041 12.2674C93.1837 12.5891 92.9059 12.9518 92.6778 13.3465C92.4617 13.7161 92.2884 14.1099 92.1615 14.52C92.049 14.8711 91.9857 15.2364 91.9735 15.6054C91.9713 15.7414 91.9838 15.8773 92.0107 16.0106C92.0397 16.153 92.0982 16.2875 92.1821 16.4053C92.2759 16.5325 92.4004 16.6331 92.5436 16.6971C92.7269 16.7767 92.9247 16.8161 93.124 16.8126H93.1364C93.268 16.8121 93.3976 16.7797 93.5144 16.7181C93.6379 16.6555 93.7531 16.5772 93.8572 16.485C93.966 16.3855 94.0668 16.2774 94.1588 16.1617C94.253 16.0442 94.3399 15.9208 94.4191 15.7923C94.6106 15.4777 94.7764 15.1477 94.9148 14.8055L94.9189 14.7783V14.7363C94.8966 14.6052 94.8842 14.4725 94.8818 14.3395C94.8632 14.1547 94.8632 13.9427 94.8632 13.7097V11.7908C94.8549 11.583 94.8528 11.5137 94.7599 11.4759L94.6752 11.4444ZM72.7806 11.3185C72.5406 11.3155 72.3024 11.3619 72.0804 11.4549C71.8361 11.5562 71.6142 11.7061 71.4277 11.8958C71.2134 12.1189 71.0356 12.3755 70.901 12.6558C70.7359 13.0054 70.6211 13.3773 70.5602 13.7601C70.5003 14.0918 70.4466 14.413 70.4053 14.6964C70.364 14.9798 70.3268 15.2023 70.2999 15.4522C70.2731 15.702 70.2462 15.9455 70.2256 16.1554C70.2111 16.2961 70.3247 16.3444 70.775 16.4704C70.9981 16.5333 71.2584 16.6089 71.3183 16.6089C71.4639 16.6373 71.6119 16.6514 71.7603 16.6509C72.1241 16.659 72.4826 16.5606 72.793 16.3675C73.1774 16.0997 73.4698 15.7165 73.6296 15.2716C73.8415 14.6833 73.9802 14.0705 74.0427 13.4472L74.042 13.4492C74.0632 13.2754 74.0774 13.0944 74.0852 12.9132L74.0922 12.6411C74.0945 12.4802 74.0786 12.3196 74.0447 12.1624C74.0094 12.0079 73.9386 11.864 73.8382 11.7425C73.726 11.6094 73.5844 11.5051 73.4251 11.4381C73.2195 11.3576 73.0009 11.317 72.7806 11.3185ZM98.8868 2.80548H98.8765C98.6018 2.82614 98.3573 2.98974 98.23 3.23796C98.0363 3.54803 97.8836 3.88259 97.7756 4.23306C97.6363 4.66363 97.5204 5.10166 97.4285 5.54518C97.3273 6.02174 97.2447 6.4794 97.1745 6.92657C97.1042 7.37374 97.0505 7.77052 97.0072 8.12742C96.9638 8.48431 96.9349 8.73833 96.9204 8.88739C96.8915 9.1939 96.8647 9.48991 96.8461 9.77543C96.8275 10.0609 96.813 10.3192 96.8027 10.5564C96.7924 10.7936 96.782 10.9994 96.782 11.1736L96.7651 12.3312L97.0361 11.7153V11.7237C97.3976 10.9217 97.728 10.1071 98.0461 9.31146C98.1721 8.97766 98.3023 8.61657 98.4365 8.23238C98.5708 7.8482 98.6906 7.47241 98.8021 7.09242C98.9137 6.71243 99.0128 6.33244 99.0954 5.96505C99.1748 5.61394 99.2348 5.25859 99.2751 4.90067C99.3206 4.46189 99.3474 4.1092 99.3474 3.85098C99.367 3.59364 99.3376 3.33488 99.2607 3.0889C99.2085 2.92285 99.0583 2.80892 98.8868 2.80548ZM73.3631 2.00982C73.1584 2.03139 72.9748 2.14753 72.8653 2.32473C72.7 2.55548 72.5613 2.80486 72.4522 3.06791C72.318 3.36392 72.1816 3.71242 72.0515 4.1176C71.9214 4.52278 71.7933 4.93426 71.6714 5.36253C71.5496 5.7908 71.4277 6.25267 71.3224 6.68934C71.217 7.12601 71.1158 7.55638 71.0249 7.96576C70.9341 8.37514 70.8556 8.73624 70.7895 9.07004C70.7234 9.40384 70.6697 9.66836 70.6304 9.8783L70.4631 10.781L70.8783 9.97907C71.0456 9.66206 71.2356 9.32406 71.4463 8.98186C71.657 8.63966 71.8677 8.27857 72.0887 7.89858C72.3097 7.51859 72.5163 7.13651 72.7228 6.74182C72.9294 6.34714 73.1194 5.93986 73.2908 5.51998C73.4611 5.10492 73.6053 4.67929 73.7225 4.24566C73.8397 3.80792 73.9178 3.36034 73.9559 2.90835C73.9559 2.88736 73.9539 2.84957 73.9435 2.73201C73.9324 2.63368 73.9095 2.5371 73.8754 2.44439C73.8371 2.3414 73.7812 2.24614 73.7101 2.16307C73.622 2.06292 73.4953 2.00692 73.3631 2.00982Z" fill="url(#paint0_linear_1916_3544)"/>
<path d="M117.645 12.3932C117.873 12.3932 117.988 12.7021 117.988 13.32C117.988 13.6558 117.847 14.0655 117.565 14.549C117.282 15.0192 116.913 15.4557 116.456 15.8587C116.013 16.2482 115.516 16.5706 114.965 16.8258C114.415 17.081 113.891 17.2086 113.394 17.2086C112.897 17.2086 112.507 17.1146 112.225 16.9265C111.943 16.7385 111.722 16.4832 111.56 16.1609C111.332 15.7042 111.144 14.8378 110.996 13.5618C110.849 12.2723 110.701 11.3723 110.553 10.8619C110.204 10.7948 109.895 10.6604 109.626 10.459C109.371 10.244 109.243 9.98883 109.243 9.69332C109.243 9.38439 109.378 9.16276 109.646 9.02843C109.928 8.89411 110.244 8.82695 110.593 8.82695C110.956 8.82695 111.278 8.91426 111.56 9.08888C111.937 8.77994 112.239 8.41727 112.467 8.00088C112.709 7.57105 112.83 7.00019 112.83 6.28829C112.83 5.56295 112.588 4.98537 112.104 4.55555C111.621 4.12572 110.909 3.9108 109.969 3.9108C109.042 3.9108 108.33 3.98468 107.833 4.13243C107.336 4.28019 106.906 4.44137 106.544 4.61599C106.194 4.79061 105.879 4.95179 105.597 5.09954C105.328 5.2473 105.073 5.32118 104.831 5.32118C104.589 5.32118 104.468 5.2473 104.468 5.09954C104.468 4.93836 104.596 4.68315 104.851 4.33392C105.106 3.98468 105.482 3.63545 105.979 3.28621C107.229 2.41313 108.639 1.9833 110.21 1.99673C111.782 1.99673 113.078 2.29224 114.099 2.88325C115.295 3.58172 115.892 4.62942 115.892 6.02636C115.906 7.18152 115.603 8.14192 114.986 8.90755C114.368 9.67317 113.602 10.2239 112.689 10.5597C112.89 11.003 113.051 11.4798 113.172 11.9902C113.307 12.5006 113.434 12.9708 113.555 13.4006C113.676 13.8304 113.81 14.1864 113.958 14.4684C114.119 14.7505 114.307 14.8915 114.522 14.8915C114.751 14.8915 115.019 14.7639 115.328 14.5087C115.65 14.2401 115.966 13.9513 116.275 13.6424C116.584 13.3334 116.859 13.0513 117.101 12.7961C117.356 12.5275 117.538 12.3932 117.645 12.3932ZM108.881 5.13984C109.055 5.13984 109.143 5.36819 109.143 5.82488C109.143 6.28157 109.116 6.7114 109.062 7.11436C108.941 7.89342 108.787 8.61876 108.599 9.29036C108.115 11.1171 107.873 12.185 107.873 12.4939V15.4557C107.873 16.181 107.598 16.678 107.047 16.9467C106.792 17.0675 106.544 17.1817 106.302 17.2892C106.073 17.3966 105.811 17.4504 105.516 17.4504C104.952 17.4504 104.67 16.8056 104.67 15.5161C104.67 14.2132 104.972 12.5745 105.576 10.6C106.181 8.62547 106.812 7.12108 107.47 6.0868C107.605 5.88532 107.799 5.67713 108.055 5.46221C108.31 5.2473 108.585 5.13984 108.881 5.13984Z" fill="#1987B6"/>
<path d="M127.496 13.8841C127.845 13.6289 128.16 13.32 128.443 12.9573C128.725 12.5812 128.96 12.3932 129.148 12.3932C129.349 12.3932 129.45 12.6887 129.45 13.2797C129.45 13.8573 129.282 14.408 128.946 14.9318C128.624 15.4423 128.194 15.8721 127.657 16.2213C126.555 16.9467 125.252 17.3093 123.748 17.3093C121.921 17.3093 120.504 16.8526 119.497 15.9392C118.489 15.0259 117.986 13.7565 117.986 12.1312C117.986 10.1299 118.469 8.22922 119.436 6.42932C119.759 5.83831 120.121 5.29431 120.524 4.79732C120.215 4.43466 119.967 4.05856 119.779 3.66903C119.604 3.26606 119.517 2.96384 119.517 2.76236C119.517 2.39969 119.651 2.21836 119.92 2.21836C120.108 2.23179 120.323 2.3594 120.565 2.60117L121.189 3.20562C121.35 3.3668 121.518 3.50113 121.693 3.60858C123.023 2.48029 124.453 1.91614 125.984 1.91614C127.529 1.91614 128.53 2.34596 128.987 3.20562C129.148 3.52799 129.228 3.92424 129.228 4.39436C129.228 5.10626 128.919 5.70399 128.301 6.18755C127.684 6.6711 126.851 6.91288 125.803 6.91288C124.769 6.91288 123.694 6.69797 122.579 6.26814C121.626 7.89342 121.149 9.59258 121.149 11.3656C121.149 13.8237 122.129 15.0527 124.091 15.0527C125.299 15.0527 126.434 14.6632 127.496 13.8841ZM123.547 5.01895C124.232 5.2473 124.977 5.36147 125.783 5.36147C126.589 5.36147 126.992 5.13984 126.992 4.69658C126.992 4.17273 126.663 3.9108 126.005 3.9108C125.105 3.9108 124.285 4.28019 123.547 5.01895Z" fill="#1987B6"/>
<path d="M41.9396 24.456V26.382H44.3786V27.3495H41.9396V30H40.7246V23.493H44.8286V24.456H41.9396Z" fill="#1987B6"/>
<path d="M47.2855 25.311C47.6275 25.311 47.938 25.3665 48.217 25.4775C48.499 25.5885 48.739 25.746 48.937 25.95C49.138 26.154 49.2925 26.403 49.4005 26.697C49.5085 26.991 49.5625 27.3195 49.5625 27.6825C49.5625 28.0485 49.5085 28.3785 49.4005 28.6725C49.2925 28.9665 49.138 29.217 48.937 29.424C48.739 29.631 48.499 29.79 48.217 29.901C47.938 30.012 47.6275 30.0675 47.2855 30.0675C46.9405 30.0675 46.627 30.012 46.345 29.901C46.063 29.79 45.8215 29.631 45.6205 29.424C45.4225 29.217 45.268 28.9665 45.157 28.6725C45.049 28.3785 44.995 28.0485 44.995 27.6825C44.995 27.3195 45.049 26.991 45.157 26.697C45.268 26.403 45.4225 26.154 45.6205 25.95C45.8215 25.746 46.063 25.5885 46.345 25.4775C46.627 25.3665 46.9405 25.311 47.2855 25.311ZM47.2855 29.2125C47.6695 29.2125 47.953 29.0835 48.136 28.8255C48.322 28.5675 48.415 28.1895 48.415 27.6915C48.415 27.1935 48.322 26.814 48.136 26.553C47.953 26.292 47.6695 26.1615 47.2855 26.1615C46.8955 26.1615 46.606 26.2935 46.417 26.5575C46.231 26.8185 46.138 27.1965 46.138 27.6915C46.138 28.1865 46.231 28.5645 46.417 28.8255C46.606 29.0835 46.8955 29.2125 47.2855 29.2125Z" fill="#1987B6"/>
<path d="M51.4589 26.184C51.6029 25.908 51.7739 25.692 51.9719 25.536C52.1699 25.377 52.4039 25.2975 52.6739 25.2975C52.8869 25.2975 53.0579 25.344 53.1869 25.437L53.1149 26.2695C53.0999 26.3235 53.0774 26.3625 53.0474 26.3865C53.0204 26.4075 52.9829 26.418 52.9349 26.418C52.8899 26.418 52.8224 26.4105 52.7324 26.3955C52.6454 26.3805 52.5599 26.373 52.4759 26.373C52.3529 26.373 52.2434 26.391 52.1474 26.427C52.0514 26.463 51.9644 26.5155 51.8864 26.5845C51.8114 26.6505 51.7439 26.7315 51.6839 26.8275C51.6269 26.9235 51.5729 27.033 51.5219 27.156V30H50.4104V25.383H51.0629C51.1769 25.383 51.2564 25.404 51.3014 25.446C51.3464 25.485 51.3764 25.557 51.3914 25.662L51.4589 26.184Z" fill="#1987B6"/>
<path d="M59.4035 24.6765C59.3675 24.7395 59.3285 24.786 59.2865 24.816C59.2475 24.843 59.198 24.8565 59.138 24.8565C59.075 24.8565 59.006 24.834 58.931 24.789C58.859 24.741 58.772 24.6885 58.67 24.6315C58.568 24.5745 58.448 24.5235 58.31 24.4785C58.175 24.4305 58.0145 24.4065 57.8285 24.4065C57.6605 24.4065 57.5135 24.4275 57.3875 24.4695C57.2615 24.5085 57.155 24.564 57.068 24.636C56.984 24.708 56.921 24.795 56.879 24.897C56.837 24.996 56.816 25.1055 56.816 25.2255C56.816 25.3785 56.858 25.506 56.942 25.608C57.029 25.71 57.143 25.797 57.284 25.869C57.425 25.941 57.5855 26.0055 57.7655 26.0625C57.9455 26.1195 58.13 26.181 58.319 26.247C58.508 26.31 58.6925 26.385 58.8725 26.472C59.0525 26.556 59.213 26.664 59.354 26.796C59.495 26.925 59.6075 27.084 59.6915 27.273C59.7785 27.462 59.822 27.6915 59.822 27.9615C59.822 28.2555 59.771 28.5315 59.669 28.7895C59.57 29.0445 59.423 29.268 59.228 29.46C59.036 29.649 58.8005 29.799 58.5215 29.91C58.2425 30.018 57.923 30.072 57.563 30.072C57.356 30.072 57.152 30.051 56.951 30.009C56.75 29.97 56.5565 29.913 56.3705 29.838C56.1875 29.763 56.015 29.673 55.853 29.568C55.691 29.463 55.547 29.346 55.421 29.217L55.7765 28.6365C55.8065 28.5945 55.8455 28.56 55.8935 28.533C55.9415 28.503 55.9925 28.488 56.0465 28.488C56.1215 28.488 56.2025 28.5195 56.2895 28.5825C56.3765 28.6425 56.48 28.71 56.6 28.785C56.72 28.86 56.8595 28.929 57.0185 28.992C57.1805 29.052 57.374 29.082 57.599 29.082C57.944 29.082 58.211 29.001 58.4 28.839C58.589 28.674 58.6835 28.4385 58.6835 28.1325C58.6835 27.9615 58.64 27.822 58.553 27.714C58.469 27.606 58.3565 27.516 58.2155 27.444C58.0745 27.369 57.914 27.306 57.734 27.255C57.554 27.204 57.371 27.1485 57.185 27.0885C56.999 27.0285 56.816 26.9565 56.636 26.8725C56.456 26.7885 56.2955 26.679 56.1545 26.544C56.0135 26.409 55.8995 26.241 55.8125 26.04C55.7285 25.836 55.6865 25.5855 55.6865 25.2885C55.6865 25.0515 55.733 24.8205 55.826 24.5955C55.922 24.3705 56.06 24.171 56.24 23.997C56.42 23.823 56.642 23.6835 56.906 23.5785C57.17 23.4735 57.473 23.421 57.815 23.421C58.199 23.421 58.553 23.481 58.877 23.601C59.201 23.721 59.477 23.889 59.705 24.105L59.4035 24.6765Z" fill="#1987B6"/>
<path d="M61.7524 23.313V27.1425H61.9594C62.0344 27.1425 62.0929 27.1335 62.1349 27.1155C62.1799 27.0945 62.2249 27.054 62.2699 26.994L63.4174 25.5765C63.4654 25.5135 63.5179 25.4655 63.5749 25.4325C63.6349 25.3995 63.7114 25.383 63.8044 25.383H64.8214L63.3859 27.0975C63.2839 27.2325 63.1729 27.336 63.0529 27.408C63.1159 27.453 63.1714 27.5055 63.2194 27.5655C63.2704 27.6255 63.3184 27.69 63.3634 27.759L64.9024 30H63.8989C63.8119 30 63.7369 29.9865 63.6739 29.9595C63.6109 29.9295 63.5584 29.877 63.5164 29.802L62.3374 28.0515C62.2954 27.9825 62.2519 27.9375 62.2069 27.9165C62.1619 27.8955 62.0944 27.885 62.0044 27.885H61.7524V30H60.6409V23.313H61.7524Z" fill="#1987B6"/>
<path d="M66.6005 25.383V30H65.4845V25.383H66.6005ZM66.7535 24.0375C66.7535 24.1335 66.734 24.2235 66.695 24.3075C66.656 24.3915 66.6035 24.465 66.5375 24.528C66.4745 24.591 66.3995 24.642 66.3125 24.681C66.2255 24.717 66.1325 24.735 66.0335 24.735C65.9375 24.735 65.846 24.717 65.759 24.681C65.675 24.642 65.6015 24.591 65.5385 24.528C65.4755 24.465 65.4245 24.3915 65.3855 24.3075C65.3495 24.2235 65.3315 24.1335 65.3315 24.0375C65.3315 23.9385 65.3495 23.8455 65.3855 23.7585C65.4245 23.6715 65.4755 23.5965 65.5385 23.5335C65.6015 23.4705 65.675 23.421 65.759 23.385C65.846 23.346 65.9375 23.3265 66.0335 23.3265C66.1325 23.3265 66.2255 23.346 66.3125 23.385C66.3995 23.421 66.4745 23.4705 66.5375 23.5335C66.6035 23.5965 66.656 23.6715 66.695 23.7585C66.734 23.8455 66.7535 23.9385 66.7535 24.0375Z" fill="#1987B6"/>
<path d="M68.8587 23.313V30H67.7472V23.313H68.8587Z" fill="#1987B6"/>
<path d="M71.0911 23.313V30H69.9796V23.313H71.0911Z" fill="#1987B6"/>
<path d="M75.0155 26.283C74.9855 26.331 74.954 26.3655 74.921 26.3865C74.888 26.4045 74.846 26.4135 74.795 26.4135C74.741 26.4135 74.6825 26.3985 74.6195 26.3685C74.5595 26.3385 74.489 26.3055 74.408 26.2695C74.327 26.2305 74.234 26.196 74.129 26.166C74.027 26.136 73.9055 26.121 73.7645 26.121C73.5455 26.121 73.373 26.1675 73.247 26.2605C73.124 26.3535 73.0625 26.475 73.0625 26.625C73.0625 26.724 73.094 26.808 73.157 26.877C73.223 26.943 73.3085 27.0015 73.4135 27.0525C73.5215 27.1035 73.643 27.15 73.778 27.192C73.913 27.231 74.0495 27.2745 74.1875 27.3225C74.3285 27.3705 74.4665 27.426 74.6015 27.489C74.7365 27.549 74.8565 27.627 74.9615 27.723C75.0695 27.816 75.155 27.9285 75.218 28.0605C75.284 28.1925 75.317 28.3515 75.317 28.5375C75.317 28.7595 75.2765 28.965 75.1955 29.154C75.1175 29.34 75.0005 29.502 74.8445 29.64C74.6885 29.775 74.495 29.8815 74.264 29.9595C74.036 30.0345 73.772 30.072 73.472 30.072C73.313 30.072 73.157 30.057 73.004 30.027C72.854 30 72.7085 29.961 72.5675 29.91C72.4295 29.859 72.3005 29.799 72.1805 29.73C72.0635 29.661 71.96 29.586 71.87 29.505L72.1265 29.082C72.1595 29.031 72.1985 28.992 72.2435 28.965C72.2885 28.938 72.3455 28.9245 72.4145 28.9245C72.4835 28.9245 72.548 28.944 72.608 28.983C72.671 29.022 72.743 29.064 72.824 29.109C72.905 29.154 72.9995 29.196 73.1075 29.235C73.2185 29.274 73.358 29.2935 73.526 29.2935C73.658 29.2935 73.7705 29.2785 73.8635 29.2485C73.9595 29.2155 74.0375 29.1735 74.0975 29.1225C74.1605 29.0715 74.2055 29.013 74.2325 28.947C74.2625 28.878 74.2775 28.8075 74.2775 28.7355C74.2775 28.6275 74.2445 28.539 74.1785 28.47C74.1155 28.401 74.03 28.341 73.922 28.29C73.817 28.239 73.6955 28.194 73.5575 28.155C73.4225 28.113 73.283 28.068 73.139 28.02C72.998 27.972 72.8585 27.9165 72.7205 27.8535C72.5855 27.7875 72.464 27.705 72.356 27.606C72.251 27.507 72.1655 27.3855 72.0995 27.2415C72.0365 27.0975 72.005 26.9235 72.005 26.7195C72.005 26.5305 72.0425 26.3505 72.1175 26.1795C72.1925 26.0085 72.302 25.86 72.446 25.734C72.593 25.605 72.7745 25.503 72.9905 25.428C73.2095 25.35 73.4615 25.311 73.7465 25.311C74.0645 25.311 74.354 25.3635 74.615 25.4685C74.876 25.5735 75.0935 25.7115 75.2675 25.8825L75.0155 26.283Z" fill="#1987B6"/>
<path d="M80.4841 26.589C80.7121 26.589 80.9101 26.5605 81.0781 26.5035C81.2491 26.4465 81.3886 26.3685 81.4966 26.2695C81.6076 26.1675 81.6901 26.0475 81.7441 25.9095C81.7981 25.7715 81.8251 25.62 81.8251 25.455C81.8251 25.125 81.7156 24.8715 81.4966 24.6945C81.2806 24.5175 80.9491 24.429 80.5021 24.429H79.7281V26.589H80.4841ZM83.5981 30H82.5046C82.2976 30 82.1476 29.919 82.0546 29.757L80.6866 27.6735C80.6356 27.5955 80.5786 27.54 80.5156 27.507C80.4556 27.474 80.3656 27.4575 80.2456 27.4575H79.7281V30H78.5176V23.493H80.5021C80.9431 23.493 81.3211 23.5395 81.6361 23.6325C81.9541 23.7225 82.2136 23.85 82.4146 24.015C82.6186 24.18 82.7686 24.378 82.8646 24.609C82.9606 24.837 83.0086 25.089 83.0086 25.365C83.0086 25.584 82.9756 25.791 82.9096 25.986C82.8466 26.181 82.7536 26.358 82.6306 26.517C82.5106 26.676 82.3606 26.8155 82.1806 26.9355C82.0036 27.0555 81.8011 27.15 81.5731 27.219C81.6511 27.264 81.7231 27.318 81.7891 27.381C81.8551 27.441 81.9151 27.513 81.9691 27.597L83.5981 30Z" fill="#1987B6"/>
<path d="M86.801 27.1605C86.801 27.0165 86.78 26.8815 86.738 26.7555C86.699 26.6265 86.639 26.514 86.558 26.418C86.477 26.322 86.3735 26.247 86.2475 26.193C86.1245 26.136 85.9805 26.1075 85.8155 26.1075C85.4945 26.1075 85.241 26.199 85.055 26.382C84.872 26.565 84.755 26.8245 84.704 27.1605H86.801ZM84.6815 27.831C84.6995 28.068 84.7415 28.2735 84.8075 28.4475C84.8735 28.6185 84.9605 28.761 85.0685 28.875C85.1765 28.986 85.304 29.07 85.451 29.127C85.601 29.181 85.766 29.208 85.946 29.208C86.126 29.208 86.2805 29.187 86.4095 29.145C86.5415 29.103 86.6555 29.0565 86.7515 29.0055C86.8505 28.9545 86.936 28.908 87.008 28.866C87.083 28.824 87.155 28.803 87.224 28.803C87.317 28.803 87.386 28.8375 87.431 28.9065L87.7505 29.3115C87.6275 29.4555 87.4895 29.577 87.3365 29.676C87.1835 29.772 87.023 29.85 86.855 29.91C86.69 29.967 86.5205 30.0075 86.3465 30.0315C86.1755 30.0555 86.009 30.0675 85.847 30.0675C85.526 30.0675 85.2275 30.015 84.9515 29.91C84.6755 29.802 84.4355 29.6445 84.2315 29.4375C84.0275 29.2275 83.867 28.9695 83.75 28.6635C83.633 28.3545 83.5745 27.9975 83.5745 27.5925C83.5745 27.2775 83.6255 26.982 83.7275 26.706C83.8295 26.427 83.975 26.1855 84.164 25.9815C84.356 25.7745 84.5885 25.611 84.8615 25.491C85.1375 25.371 85.448 25.311 85.793 25.311C86.084 25.311 86.3525 25.3575 86.5985 25.4505C86.8445 25.5435 87.056 25.68 87.233 25.86C87.41 26.037 87.548 26.256 87.647 26.517C87.749 26.775 87.8 27.0705 87.8 27.4035C87.8 27.5715 87.782 27.6855 87.746 27.7455C87.71 27.8025 87.641 27.831 87.539 27.831H84.6815Z" fill="#1987B6"/>
<path d="M90.3216 27.579C90.4596 27.579 90.5796 27.561 90.6816 27.525C90.7836 27.486 90.8676 27.4335 90.9336 27.3675C91.0026 27.3015 91.0536 27.222 91.0866 27.129C91.1226 27.036 91.1406 26.934 91.1406 26.823C91.1406 26.595 91.0716 26.415 90.9336 26.283C90.7986 26.148 90.5946 26.0805 90.3216 26.0805C90.0486 26.0805 89.8431 26.148 89.7051 26.283C89.5701 26.415 89.5026 26.595 89.5026 26.823C89.5026 26.931 89.5191 27.0315 89.5521 27.1245C89.5881 27.2175 89.6391 27.2985 89.7051 27.3675C89.7741 27.4335 89.8596 27.486 89.9616 27.525C90.0666 27.561 90.1866 27.579 90.3216 27.579ZM91.5771 30.207C91.5771 30.117 91.5501 30.0435 91.4961 29.9865C91.4421 29.9295 91.3686 29.886 91.2756 29.856C91.1826 29.823 91.0731 29.799 90.9471 29.784C90.8241 29.769 90.6921 29.7585 90.5511 29.7525C90.4131 29.7435 90.2691 29.736 90.1191 29.73C89.9721 29.724 89.8281 29.712 89.6871 29.694C89.5641 29.763 89.4636 29.844 89.3856 29.937C89.3106 30.03 89.2731 30.138 89.2731 30.261C89.2731 30.342 89.2926 30.417 89.3316 30.486C89.3736 30.558 89.4381 30.6195 89.5251 30.6705C89.6151 30.7215 89.7306 30.7605 89.8716 30.7875C90.0126 30.8175 90.1851 30.8325 90.3891 30.8325C90.5961 30.8325 90.7746 30.816 90.9246 30.783C91.0746 30.753 91.1976 30.7095 91.2936 30.6525C91.3926 30.5985 91.4646 30.5325 91.5096 30.4545C91.5546 30.3795 91.5771 30.297 91.5771 30.207ZM92.6841 25.5405V25.9545C92.6841 26.0865 92.6046 26.1675 92.4456 26.1975L92.0316 26.274C92.0946 26.433 92.1261 26.607 92.1261 26.796C92.1261 27.024 92.0796 27.231 91.9866 27.417C91.8966 27.6 91.7706 27.756 91.6086 27.885C91.4466 28.014 91.2546 28.1145 91.0326 28.1865C90.8136 28.2555 90.5766 28.29 90.3216 28.29C90.2316 28.29 90.1446 28.2855 90.0606 28.2765C89.9766 28.2675 89.8941 28.2555 89.8131 28.2405C89.6691 28.3275 89.5971 28.425 89.5971 28.533C89.5971 28.626 89.6391 28.695 89.7231 28.74C89.8101 28.782 89.9241 28.812 90.0651 28.83C90.2061 28.848 90.3666 28.86 90.5466 28.866C90.7266 28.869 90.9111 28.878 91.1001 28.893C91.2891 28.908 91.4736 28.935 91.6536 28.974C91.8336 29.01 91.9941 29.0685 92.1351 29.1495C92.2761 29.2305 92.3886 29.3415 92.4726 29.4825C92.5596 29.6205 92.6031 29.799 92.6031 30.018C92.6031 30.222 92.5521 30.42 92.4501 30.612C92.3511 30.804 92.2056 30.975 92.0136 31.125C91.8246 31.275 91.5906 31.395 91.3116 31.485C91.0356 31.578 90.7206 31.6245 90.3666 31.6245C90.0186 31.6245 89.7156 31.59 89.4576 31.521C89.1996 31.455 88.9851 31.365 88.8141 31.251C88.6431 31.14 88.5156 31.011 88.4316 30.864C88.3476 30.717 88.3056 30.564 88.3056 30.405C88.3056 30.189 88.3701 30.009 88.4991 29.865C88.6311 29.718 88.8111 29.601 89.0391 29.514C88.9161 29.451 88.8186 29.367 88.7466 29.262C88.6746 29.157 88.6386 29.019 88.6386 28.848C88.6386 28.779 88.6506 28.7085 88.6746 28.6365C88.7016 28.5615 88.7391 28.488 88.7871 28.416C88.8381 28.344 88.9011 28.2765 88.9761 28.2135C89.0511 28.1475 89.1396 28.089 89.2416 28.038C89.0076 27.912 88.8231 27.744 88.6881 27.534C88.5561 27.324 88.4901 27.078 88.4901 26.796C88.4901 26.568 88.5351 26.3625 88.6251 26.1795C88.7181 25.9935 88.8456 25.836 89.0076 25.707C89.1726 25.575 89.3661 25.4745 89.5881 25.4055C89.8131 25.3365 90.0576 25.302 90.3216 25.302C90.5196 25.302 90.7056 25.323 90.8796 25.365C91.0536 25.404 91.2126 25.4625 91.3566 25.5405H92.6841Z" fill="#1987B6"/>
<path d="M94.541 25.383V30H93.425V25.383H94.541ZM94.694 24.0375C94.694 24.1335 94.6745 24.2235 94.6355 24.3075C94.5965 24.3915 94.544 24.465 94.478 24.528C94.415 24.591 94.34 24.642 94.253 24.681C94.166 24.717 94.073 24.735 93.974 24.735C93.878 24.735 93.7865 24.717 93.6995 24.681C93.6155 24.642 93.542 24.591 93.479 24.528C93.416 24.465 93.365 24.3915 93.326 24.3075C93.29 24.2235 93.272 24.1335 93.272 24.0375C93.272 23.9385 93.29 23.8455 93.326 23.7585C93.365 23.6715 93.416 23.5965 93.479 23.5335C93.542 23.4705 93.6155 23.421 93.6995 23.385C93.7865 23.346 93.878 23.3265 93.974 23.3265C94.073 23.3265 94.166 23.346 94.253 23.385C94.34 23.421 94.415 23.4705 94.478 23.5335C94.544 23.5965 94.5965 23.6715 94.6355 23.7585C94.6745 23.8455 94.694 23.9385 94.694 24.0375Z" fill="#1987B6"/>
<path d="M98.4911 26.283C98.4611 26.331 98.4296 26.3655 98.3966 26.3865C98.3636 26.4045 98.3216 26.4135 98.2706 26.4135C98.2166 26.4135 98.1581 26.3985 98.0951 26.3685C98.0351 26.3385 97.9646 26.3055 97.8836 26.2695C97.8026 26.2305 97.7096 26.196 97.6046 26.166C97.5026 26.136 97.3811 26.121 97.2401 26.121C97.0211 26.121 96.8486 26.1675 96.7226 26.2605C96.5996 26.3535 96.5381 26.475 96.5381 26.625C96.5381 26.724 96.5696 26.808 96.6326 26.877C96.6986 26.943 96.7841 27.0015 96.8891 27.0525C96.9971 27.1035 97.1186 27.15 97.2536 27.192C97.3886 27.231 97.5251 27.2745 97.6631 27.3225C97.8041 27.3705 97.9421 27.426 98.0771 27.489C98.2121 27.549 98.3321 27.627 98.4371 27.723C98.5451 27.816 98.6306 27.9285 98.6936 28.0605C98.7596 28.1925 98.7926 28.3515 98.7926 28.5375C98.7926 28.7595 98.7521 28.965 98.6711 29.154C98.5931 29.34 98.4761 29.502 98.3201 29.64C98.1641 29.775 97.9706 29.8815 97.7396 29.9595C97.5116 30.0345 97.2476 30.072 96.9476 30.072C96.7886 30.072 96.6326 30.057 96.4796 30.027C96.3296 30 96.1841 29.961 96.0431 29.91C95.9051 29.859 95.7761 29.799 95.6561 29.73C95.5391 29.661 95.4356 29.586 95.3456 29.505L95.6021 29.082C95.6351 29.031 95.6741 28.992 95.7191 28.965C95.7641 28.938 95.8211 28.9245 95.8901 28.9245C95.9591 28.9245 96.0236 28.944 96.0836 28.983C96.1466 29.022 96.2186 29.064 96.2996 29.109C96.3806 29.154 96.4751 29.196 96.5831 29.235C96.6941 29.274 96.8336 29.2935 97.0016 29.2935C97.1336 29.2935 97.2461 29.2785 97.3391 29.2485C97.4351 29.2155 97.5131 29.1735 97.5731 29.1225C97.6361 29.0715 97.6811 29.013 97.7081 28.947C97.7381 28.878 97.7531 28.8075 97.7531 28.7355C97.7531 28.6275 97.7201 28.539 97.6541 28.47C97.5911 28.401 97.5056 28.341 97.3976 28.29C97.2926 28.239 97.1711 28.194 97.0331 28.155C96.8981 28.113 96.7586 28.068 96.6146 28.02C96.4736 27.972 96.3341 27.9165 96.1961 27.8535C96.0611 27.7875 95.9396 27.705 95.8316 27.606C95.7266 27.507 95.6411 27.3855 95.5751 27.2415C95.5121 27.0975 95.4806 26.9235 95.4806 26.7195C95.4806 26.5305 95.5181 26.3505 95.5931 26.1795C95.6681 26.0085 95.7776 25.86 95.9216 25.734C96.0686 25.605 96.2501 25.503 96.4661 25.428C96.6851 25.35 96.9371 25.311 97.2221 25.311C97.5401 25.311 97.8296 25.3635 98.0906 25.4685C98.3516 25.5735 98.5691 25.7115 98.7431 25.8825L98.4911 26.283Z" fill="#1987B6"/>
<path d="M101.168 30.072C100.766 30.072 100.457 29.9595 100.241 29.7345C100.028 29.5065 99.9217 29.193 99.9217 28.794V26.2155H99.4492C99.3892 26.2155 99.3382 26.196 99.2962 26.157C99.2542 26.118 99.2332 26.0595 99.2332 25.9815V25.5405L99.9757 25.419L100.21 24.159C100.225 24.099 100.253 24.0525 100.295 24.0195C100.337 23.9865 100.391 23.97 100.457 23.97H101.033V25.4235H102.266V26.2155H101.033V28.7175C101.033 28.8615 101.068 28.974 101.137 29.055C101.209 29.136 101.306 29.1765 101.429 29.1765C101.498 29.1765 101.555 29.169 101.6 29.154C101.648 29.136 101.689 29.118 101.722 29.1C101.758 29.082 101.789 29.0655 101.816 29.0505C101.843 29.0325 101.87 29.0235 101.897 29.0235C101.93 29.0235 101.957 29.0325 101.978 29.0505C101.999 29.0655 102.022 29.0895 102.046 29.1225L102.379 29.6625C102.217 29.7975 102.031 29.8995 101.821 29.9685C101.611 30.0375 101.393 30.072 101.168 30.072Z" fill="#1987B6"/>
<path d="M104.026 26.184C104.17 25.908 104.341 25.692 104.539 25.536C104.737 25.377 104.971 25.2975 105.241 25.2975C105.454 25.2975 105.625 25.344 105.754 25.437L105.682 26.2695C105.667 26.3235 105.645 26.3625 105.615 26.3865C105.588 26.4075 105.55 26.418 105.502 26.418C105.457 26.418 105.39 26.4105 105.3 26.3955C105.213 26.3805 105.127 26.373 105.043 26.373C104.92 26.373 104.811 26.391 104.715 26.427C104.619 26.463 104.532 26.5155 104.454 26.5845C104.379 26.6505 104.311 26.7315 104.251 26.8275C104.194 26.9235 104.14 27.033 104.089 27.156V30H102.978V25.383H103.63C103.744 25.383 103.824 25.404 103.869 25.446C103.914 25.485 103.944 25.557 103.959 25.662L104.026 26.184Z" fill="#1987B6"/>
<path d="M110.529 25.383L108.014 31.269C107.981 31.347 107.937 31.4055 107.883 31.4445C107.832 31.4865 107.753 31.5075 107.645 31.5075H106.817L107.681 29.6535L105.813 25.383H106.79C106.877 25.383 106.944 25.404 106.992 25.446C107.043 25.488 107.081 25.536 107.105 25.59L108.086 27.984C108.119 28.065 108.146 28.146 108.167 28.227C108.191 28.308 108.213 28.3905 108.234 28.4745C108.261 28.3905 108.288 28.308 108.315 28.227C108.342 28.143 108.372 28.0605 108.405 27.9795L109.332 25.59C109.356 25.53 109.395 25.4805 109.449 25.4415C109.506 25.4025 109.569 25.383 109.638 25.383H110.529Z" fill="#1987B6"/>
<defs>
<linearGradient id="paint0_linear_1916_3544" x1="-18.7342" y1="13.7753" x2="50.0146" y2="46.0621" gradientUnits="userSpaceOnUse">
<stop stop-color="#00B993"/>
<stop offset="1" stop-color="#0080BC"/>
</linearGradient>
</defs>
</svg>
